<?xml version="1.0" encoding="iso-8859-1"?>
<!-- Uploaded to: SVG Repo, www.svgrepo.com, Generator: SVG Repo Mixer Tools -->
<svg version="1.1" id="Layer_1" xmlns="http://www.w3.org/2000/svg" xmlns:xlink="http://www.w3.org/1999/xlink" 
	 viewBox="0 0 512 512" xml:space="preserve">
<rect x="16" y="64" style="fill:#72C6EF;" width="480" height="384"/>
<circle style="fill:#FAA85F;" cx="224" cy="256" r="144"/>
<g>
	
		<rect x="312.101" y="307.917" transform="matrix(-0.7072 -0.707 0.707 -0.7072 324.9851 838.4199)" style="fill:#FFFFFF;" width="48" height="87.999"/>
	<circle style="fill:#FFFFFF;" cx="224" cy="256" r="48"/>
</g>
<g>
	<path style="fill:#00384E;" d="M224,320c-35.296,0-64-28.704-64-64s28.704-64,64-64s64,28.704,64,64S259.296,320,224,320z M224,224
		c-17.648,0-32,14.352-32,32s14.352,32,32,32s32-14.352,32-32S241.648,224,224,224z"/>
	<path style="fill:#00384E;" d="M432,48h-32H0v416h512V48H432z M480,432H32V80h368v185.376l-18.768,18.768
		C382.912,274.992,384,265.632,384,256c0-88.224-71.776-160-160-160S64,167.776,64,256s71.776,160,160,160
		c26.448,0,51.328-6.576,73.312-18l24.64,24.624l84.864-84.848L389.84,320.8L432,278.624V80h48V432z M348.96,282.48l-83.6,83.584
		l7.92,7.92C258.112,380.4,241.488,384,224,384c-70.576,0-128-57.424-128-128s57.424-128,128-128s128,57.424,128,128
		C352,265.12,350.784,273.92,348.96,282.48z M310.64,366.064l39.6-39.6l11.312,11.312l-39.6,39.6L310.64,366.064z"/>
	<circle style="fill:#00384E;" cx="224" cy="256" r="16"/>
</g>
</svg>